<svg xmlns="http://www.w3.org/2000/svg" xmlns:xlink="http://www.w3.org/1999/xlink" width="500" zoomAndPan="magnify" viewBox="0 0 375 374.999991" height="500" preserveAspectRatio="xMidYMid meet" version="1.0"><path fill="#cc5a71" d="M 181.425781 0 L 193.5 0 L 193.5 24.226562 L 205.574219 24.226562 L 205.574219 72.601562 L 217.648438 72.601562 L 217.648438 96.75 L 229.726562 96.75 L 229.726562 120.976562 L 241.800781 120.976562 L 241.800781 133.050781 L 253.875 133.050781 L 253.875 145.125 L 278.25 145.125 L 278.25 157.199219 L 302.476562 157.199219 L 302.476562 169.273438 L 326.699219 169.273438 L 326.699219 181.351562 L 375 181.351562 L 375 193.425781 L 350.773438 193.425781 L 350.773438 205.5 L 314.476562 205.5 L 314.476562 217.574219 L 278.25 217.574219 L 278.25 229.648438 L 266.175781 229.648438 L 266.175781 241.726562 L 241.949219 241.726562 L 241.949219 265.949219 L 229.875 265.949219 L 229.875 278.25 L 217.800781 278.25 L 217.800781 314.550781 L 205.726562 314.550781 L 205.726562 350.851562 L 193.648438 350.851562 L 193.648438 375 L 181.574219 375 L 181.574219 326.625 L 169.5 326.625 L 169.5 293.324219 L 157.425781 293.324219 L 157.425781 278.25 L 145.351562 278.25 L 145.351562 254.023438 L 133.273438 254.023438 L 133.273438 241.949219 L 121.199219 241.949219 L 121.199219 229.875 L 96.75 229.875 L 96.75 217.800781 L 72.601562 217.800781 L 72.601562 205.726562 L 24.226562 205.726562 L 24.226562 193.648438 L 0 193.648438 L 0 181.574219 L 48.375 181.574219 L 48.375 169.5 L 84.675781 169.5 L 84.675781 157.425781 L 108.898438 157.425781 L 108.898438 145.351562 L 120.976562 145.351562 L 120.976562 133.273438 L 133.050781 133.273438 L 133.050781 121.199219 L 145.125 121.199219 L 145.125 109.125 L 157.199219 109.125 L 157.199219 84.898438 L 169.273438 84.898438 L 169.273438 48.375 L 181.351562 48.375 L 181.351562 0 Z M 181.425781 0 " fill-opacity="1" fill-rule="nonzero"/></svg>