<svg xmlns="http://www.w3.org/2000/svg" xmlns:xlink="http://www.w3.org/1999/xlink" width="500" zoomAndPan="magnify" viewBox="0 0 375 374.999991" height="500" preserveAspectRatio="xMidYMid meet" version="1.0"><defs><g/></defs><g fill="#ffffff" fill-opacity="1"><g transform="translate(0.0000045, 209.806251)"><g><path d="M 22.359375 0 L 22.359375 -13.242188 L 16.238281 -13.242188 L 16.238281 -5.808594 L 9.242188 -5.808594 L 9.242188 -35.851562 L 16.238281 -35.851562 L 16.238281 -28.480469 L 22.359375 -28.480469 L 22.359375 -41.660156 L 3.121094 -41.660156 L 3.121094 0 Z M 22.359375 0 "/></g></g></g><g fill="#ffffff" fill-opacity="1"><g transform="translate(24.420842, 209.806251)"><g><path d="M 22.359375 0 L 22.359375 -31.042969 L 9.242188 -31.042969 L 9.242188 -41.660156 L 3.121094 -41.660156 L 3.121094 0 L 9.242188 0 L 9.242188 -25.234375 L 16.238281 -25.234375 L 16.238281 0 Z M 22.359375 0 "/></g></g></g><g fill="#ffffff" fill-opacity="1"><g transform="translate(49.466252, 209.806251)"><g><path d="M 18.300781 0 L 18.300781 -5.808594 L 9.242188 -5.808594 L 9.242188 -19.363281 L 18.175781 -19.363281 L 18.175781 -25.171875 L 9.242188 -25.171875 L 9.242188 -35.851562 L 18.300781 -35.851562 L 18.300781 -41.660156 L 3.121094 -41.660156 L 3.121094 0 Z M 18.300781 0 "/></g></g></g><g fill="#ffffff" fill-opacity="1"><g transform="translate(69.82736, 209.806251)"><g><path d="M 18.425781 0 L 18.425781 -5.808594 L 9.242188 -5.808594 L 9.242188 -41.660156 L 3.121094 -41.660156 L 3.121094 0 Z M 18.425781 0 "/></g></g></g><g fill="#ffffff" fill-opacity="1"><g transform="translate(89.50144, 209.806251)"><g><path d="M 22.359375 0 L 22.359375 -21.921875 L 9.242188 -21.921875 L 9.242188 -35.851562 L 22.359375 -35.851562 L 22.359375 -41.660156 L 3.121094 -41.660156 L 3.121094 -16.175781 L 16.238281 -16.175781 L 16.238281 -5.808594 L 3.121094 -5.808594 L 3.121094 0 Z M 22.359375 0 "/></g></g></g><g fill="#ffffff" fill-opacity="1"><g transform="translate(114.484392, 209.806251)"><g><path d="M 18.300781 0 L 18.300781 -5.808594 L 9.242188 -5.808594 L 9.242188 -19.363281 L 18.175781 -19.363281 L 18.175781 -25.171875 L 9.242188 -25.171875 L 9.242188 -35.851562 L 18.300781 -35.851562 L 18.300781 -41.660156 L 3.121094 -41.660156 L 3.121094 0 Z M 18.300781 0 "/></g></g></g><g fill="#ffffff" fill-opacity="1"><g transform="translate(134.8455, 209.806251)"><g><path d="M 22.359375 0 L 22.359375 -41.660156 L 3.121094 -41.660156 L 3.121094 0 L 9.242188 0 L 9.242188 -19.363281 L 16.238281 -19.363281 L 16.238281 0 Z M 16.238281 -25.171875 L 9.242188 -25.171875 L 9.242188 -35.851562 L 16.238281 -35.851562 Z M 16.238281 -25.171875 "/></g></g></g><g fill="#ffffff" fill-opacity="1"><g transform="translate(160.328109, 209.806251)"><g/></g></g><g fill="#ffffff" fill-opacity="1"><g transform="translate(172.694671, 209.806251)"><g><path d="M 22.359375 0 L 22.359375 -41.660156 L 3.121094 -41.660156 L 3.121094 0 L 10.367188 0 L 13.617188 6.871094 L 20.296875 6.871094 L 17.050781 0 Z M 16.238281 -5.808594 L 9.242188 -5.808594 L 9.242188 -35.851562 L 16.238281 -35.851562 Z M 16.238281 -5.808594 "/></g></g></g><g fill="#ffffff" fill-opacity="1"><g transform="translate(198.052366, 209.806251)"><g><path d="M 22.359375 0 L 22.359375 -41.660156 L 16.238281 -41.660156 L 16.238281 -5.808594 L 9.242188 -5.808594 L 9.242188 -41.660156 L 3.121094 -41.660156 L 3.121094 0 Z M 22.359375 0 "/></g></g></g><g fill="#ffffff" fill-opacity="1"><g transform="translate(223.534975, 209.806251)"><g><path d="M 9.242188 0 L 9.242188 -41.660156 L 3.121094 -41.660156 L 3.121094 0 Z M 9.242188 0 "/></g></g></g><g fill="#ffffff" fill-opacity="1"><g transform="translate(235.901537, 209.806251)"><g><path d="M 22.359375 0 L 22.359375 -41.660156 L 16.300781 -41.660156 L 16.300781 -18.988281 L 8.867188 -41.660156 L 3.121094 -41.660156 L 3.121094 0 L 9.242188 0 L 9.242188 -22.421875 L 16.675781 0 Z M 22.359375 0 "/></g></g></g><g fill="#ffffff" fill-opacity="1"><g transform="translate(261.50906, 209.806251)"><g><path d="M 22.359375 0 L 22.359375 -41.660156 L 16.238281 -41.660156 L 16.238281 -31.042969 L 3.121094 -31.042969 L 3.121094 0 Z M 9.242188 -25.234375 L 16.238281 -25.234375 L 16.238281 -5.808594 L 9.242188 -5.808594 Z M 9.242188 -25.234375 "/></g></g></g><g fill="#ffffff" fill-opacity="1"><g transform="translate(286.554452, 209.806251)"><g><path d="M 9.242188 0 L 9.242188 -41.660156 L 3.121094 -41.660156 L 3.121094 0 Z M 9.242188 0 "/></g></g></g><g fill="#ffffff" fill-opacity="1"><g transform="translate(298.921031, 209.806251)"><g><path d="M 3.121094 -41.660156 L 3.121094 0 L 9.242188 0 L 9.242188 -10.742188 L 22.359375 -10.742188 L 22.359375 -41.660156 Z M 16.238281 -16.550781 L 9.242188 -16.550781 L 9.242188 -35.851562 L 16.238281 -35.851562 Z M 16.238281 -16.550781 "/></g></g></g><g fill="#ffffff" fill-opacity="1"><g transform="translate(323.903983, 209.806251)"><g><path d="M 22.359375 0 L 22.359375 -41.660156 L 3.121094 -41.660156 L 3.121094 0 L 9.242188 0 L 9.242188 -19.363281 L 16.238281 -19.363281 L 16.238281 0 Z M 16.238281 -25.171875 L 9.242188 -25.171875 L 9.242188 -35.851562 L 16.238281 -35.851562 Z M 16.238281 -25.171875 "/></g></g></g><g fill="#ffffff" fill-opacity="1"><g transform="translate(349.386592, 209.806251)"><g><path d="M 22.359375 0 L 22.359375 -41.660156 L 16.300781 -41.660156 L 16.300781 -18.988281 L 8.867188 -41.660156 L 3.121094 -41.660156 L 3.121094 0 L 9.242188 0 L 9.242188 -22.421875 L 16.675781 0 Z M 22.359375 0 "/></g></g></g></svg>